<?xml version="1.0" standalone="no"?>
<!DOCTYPE svg PUBLIC "-//W3C//DTD SVG 20010904//EN"
 "http://www.w3.org/TR/2001/REC-SVG-20010904/DTD/svg10.dtd">
<svg version="1.0" xmlns="http://www.w3.org/2000/svg"
 width="180.000000pt" height="180.000000pt" viewBox="0 0 180.000000 180.000000"
 preserveAspectRatio="xMidYMid meet">

<g transform="translate(0.000000,180.000000) scale(0.100000,-0.100000)"
fill="#000000" stroke="none">
<path d="M1363 1678 c-4 -7 -27 -51 -52 -98 -57 -109 -97 -172 -154 -240 l-45
-54 19 -38 c11 -21 27 -71 36 -110 l16 -71 18 34 c9 19 33 49 52 67 30 30 44
35 113 43 131 16 210 66 243 150 8 22 6 30 -13 48 -12 11 -26 21 -31 21 -4 0
-32 -18 -61 -40 -28 -23 -67 -45 -85 -51 -32 -9 -89 -4 -89 8 0 3 16 24 36 46
33 39 134 229 134 252 0 11 -86 45 -113 45 -9 0 -19 -6 -24 -12z"/>
<path d="M343 1469 c-27 -8 -33 -15 -33 -36 0 -46 50 -193 97 -286 24 -49 42
-92 39 -95 -3 -3 -35 3 -71 13 -36 9 -68 15 -72 12 -11 -12 -27 -157 -17 -166
5 -5 70 -28 144 -51 162 -51 201 -69 234 -113 36 -47 45 -103 46 -271 l0 -149
22 29 c41 55 93 106 160 155 57 43 68 56 73 87 14 84 39 140 96 213 74 97 86
139 71 246 -15 105 -43 179 -98 253 -48 65 -78 77 -88 36 -3 -14 -15 -28 -26
-31 -26 -8 -25 -29 4 -68 67 -90 56 -226 -27 -314 -28 -31 -40 -29 -72 12 -15
20 -50 54 -78 76 -148 115 -210 202 -258 364 l-27 90 -43 2 c-24 1 -59 -3 -76
-8z"/>
<path d="M1333 852 c-7 -4 -25 -26 -40 -49 -80 -119 -147 -185 -273 -268 -151
-99 -239 -188 -295 -297 -22 -42 -37 -79 -34 -82 3 -4 84 -3 181 0 l174 7 16
84 c27 142 85 197 242 229 39 9 75 19 79 23 5 5 11 28 14 51 6 40 4 43 -13 36
-26 -10 -114 -20 -114 -13 0 3 26 32 58 64 54 55 96 123 104 168 2 14 -7 24
-32 37 -40 19 -50 21 -67 10z"/>
</g>
</svg>
